<?xml version="1.0" standalone="no"?><!DOCTYPE svg PUBLIC "-//W3C//DTD SVG 1.1//EN" "http://www.w3.org/Graphics/SVG/1.1/DTD/svg11.dtd"><svg t="1601186729853" class="icon" viewBox="0 0 1024 1024" version="1.1" xmlns="http://www.w3.org/2000/svg" p-id="4042" width="450" height="450" xmlns:xlink="http://www.w3.org/1999/xlink"><defs><style type="text/css"></style></defs><path d="M487.3 372.5c-83.7 0-151.8 68.1-151.8 151.8S403.6 676 487.3 676 639 608 639 524.3s-68.1-151.8-151.7-151.8z m0 275.6c-68.3 0-123.8-55.5-123.8-123.8s55.6-123.8 123.8-123.8c68.3 0 123.8 55.6 123.8 123.8 0 68.3-55.6 123.8-123.8 123.8z" fill="#d81e06" p-id="4043"></path><path d="M427.105911 534.056342a61 61 0 1 0 120.426196-19.532829 61 61 0 1 0-120.426196 19.532829Z" fill="#d81e06" p-id="4044"></path><path d="M905.2 200.6c0-26.8-21.7-48.5-48.5-48.5s-48.5 21.7-48.5 48.5c0 18 9.8 33.6 24.3 42L818 303.4c-14.4-21.6-31-41.7-49.6-60.3-36.5-36.5-79-65.2-126.4-85.2-49-20.7-101.1-31.3-154.8-31.3s-105.8 10.5-154.8 31.3c-47.4 20-89.9 48.7-126.4 85.2s-65.2 79-85.2 126.4c-20.7 49-31.3 101.1-31.3 154.8s10.5 105.8 31.3 154.8c20 47.4 48.7 89.9 85.2 126.4s79 65.2 126.4 85.2c49 20.7 101.1 31.3 154.8 31.3S593 911.5 642 890.7c47.4-20 89.9-48.7 126.4-85.2s65.2-79 85.2-126.4c20.7-49 31.3-101.1 31.3-154.8s-10.5-105.8-31.3-154.8c-4.6-10.8-9.6-21.3-15.1-31.6l21-88.8c25.5-1.5 45.7-22.6 45.7-48.5zM857 524.3c0 49.9-9.8 98.3-29.1 143.9-18.6 44-45.3 83.6-79.2 117.5-34 34-73.5 60.6-117.5 79.2-45.6 19.3-94 29.1-143.9 29.1s-98.3-9.8-143.9-29.1c-44-18.6-83.6-45.3-117.5-79.2-34-34-60.6-73.5-79.2-117.5-19.3-45.6-29.1-94-29.1-143.9s9.8-98.3 29.1-143.9c18.6-44 45.3-83.6 79.2-117.5s73.5-60.6 117.5-79.2c45.6-19.3 94-29.1 143.9-29.1s98.3 9.8 143.9 29.1c44 18.6 83.6 45.3 117.5 79.2 23.7 23.7 43.9 50.2 60.3 79L779.5 467c0 0.2-0.1 0.3-0.1 0.5-10.2 50.6-33.4 97.9-67.3 136.9L637.7 690c-5.1 5.8-4.4 14.7 1.4 19.7 2.6 2.3 5.9 3.4 9.2 3.4 3.9 0 7.8-1.6 10.6-4.8l74.4-85.7c36.9-42.6 62.4-94.2 73.5-149.5l21.7-91.8c18.9 45.3 28.5 93.4 28.5 143z" fill="#d81e06" p-id="4045"></path><path d="M467.5 268.3c0-7.7-6.3-14-14-14-63.8 0-123.8 24.9-169 70s-70 105.1-70 169c0 7.7 6.3 14 14 14s14-6.3 14-14c0-116.4 94.7-211 211-211 7.7 0 14-6.3 14-14z" fill="#d81e06" p-id="4046"></path></svg>